<svg width="1600" height="400" xmlns="http://www.w3.org/2000/svg" xmlns:xlink="http://www.w3.org/1999/xlink">
 <defs>
  <path d="m114.96024,0l1503.07952,0c0,0 258.88094,418.27128 0,506.27128c-258.88093,88 -329.03976,-0.27128 -501.02651,37.78723c-171.98674,38.05851 -242.68471,181.78723 -501.0265,117.78723c-258.3418,-64 -242.66345,165.78724 -501.02651,165.78724c-258.36306,0 0,-827.63298 0,-827.63298z" id="b"/>
  <linearGradient y2="100%" y1="0%" x2="50%" x1="50%" id="a">
   <stop stop-color="#3f51b5" offset="0%"/>
   <stop stop-color="#3B90F7" offset="100%"/>
  </linearGradient>
 </defs>
 <g>
  <title>background</title>
  <rect fill="none" id="canvas_background" height="402" width="1602" y="-1" x="-1"/>
 </g>
 <g>
  <title>Layer 1</title>
  <g stroke="null" id="svg_1" fill-rule="evenodd" fill="none">
   <path stroke="null" id="svg_2" opacity="0.2" d="m-15.010187,-2.405671l1602.043897,-6.156311c0,0 241.819026,111.68752 42.633643,170.172476c-199.185372,58.484956 -301.296976,-3.929562 -576.648279,29.930149c-275.351292,33.859711 -258.663333,85.33695 -534.014625,69.946172c-275.351303,-15.390778 -258.640673,48.399087 -534.014636,48.399087c-275.373963,0 0,-312.291573 0,-312.291573z" fill="url(#a)"/>
   <mask stroke="null" transform="translate(-79.99964141845703,3.3333184719085693) translate(-159.99928283691406,-9.999955177307129) translate(0,-27) translate(-28,128) translate(-15,363) translate(19,357) translate(161,-238) translate(-78,-108) translate(-577.0650024414062,-1121.1490478515625) scale(1,0.7896854281425476) translate(577.0650024414062,1121.1490478515625) translate(-558.0650024414062,-967.6625366210938) scale(1,0.7757648825645447) translate(558.0650024414062,967.6625366210938) translate(-573.0650024414062,-654.8192749023438) scale(1,0.6941788196563721) translate(573.0650024414062,654.8192749023438) translate(-601.0650024414062,-642.3089599609375) scale(1,0.9047841429710388) translate(601.0650024414062,642.3089599609375) translate(-761.0642700195312,-806.0643920898438) scale(1.0658410787582397,1) translate(761.0642700195312,806.0643920898438) " id="c">
    <use stroke="null" id="svg_3" xlink:href="#b"/>
   </mask>
   <use stroke="null" transform="matrix(1.0658410787582397,0,0,0.38476944725053686,20.265742337207485,-243.70496906464035) " id="svg_4" x="-148.057041" y="611.12697" xlink:href="#b" fill="url(#a)"/>
   <g stroke="null" id="svg_5" opacity="0.7" mask="url(#c)">
    <g stroke="null" id="svg_6">
     <path stroke="null" id="svg_7" opacity="0.06" d="m-37.347565,-102.331134l-194.227324,170.842525c-26.899313,23.657988 -90.849085,39.11233 -161.849716,39.11233l-360.027548,0l194.23372,-170.840224c26.899303,-23.660289 90.849085,-39.114631 161.843321,-39.114631l360.027548,0z" fill="#94C5FF"/>
     <path stroke="null" id="svg_8" opacity="0.06" d="m1208.237508,-306.81563l-426.617238,375.25291c-59.083909,51.964395 -199.548589,85.909614 -355.500335,85.909614l-1267.183862,0.057338l426.631286,-375.247854c59.083909,-51.969451 199.548589,-85.91467 355.486298,-85.91467l1267.183852,-0.057338z" fill="#94C5FF"/>
     <path stroke="null" id="svg_9" opacity="0.31" d="m1894.292956,31.787806l-240.173325,211.256665c-33.262545,29.254471 -112.340151,48.364658 -200.136529,48.364658l-1622.50131,-0.006322l240.181222,-211.253817c33.262555,-29.257319 112.340151,-48.367505 200.12862,-48.367505l1622.50132,0.006322z" fill-opacity="0.4" fill="#1A32AF"/>
     <path stroke="null" id="svg_10" opacity="0.7" d="m1964.85965,-73.522546l-144.27373,126.903297c-19.981035,17.573356 -67.483483,29.052975 -120.223356,29.052975l-670.289271,0l144.278473,-126.901589c19.981035,-17.575064 67.483483,-29.054684 120.218603,-29.054684l670.289282,0z" fill-opacity="0.2" fill="#0092FF"/>
     <path stroke="null" id="svg_11" opacity="0.4" d="m1836.570979,173.892397l-144.27373,126.903297c-19.981035,17.573356 -67.483483,29.052971 -120.223356,29.052971l-2078.335671,0l144.278473,-126.901585c19.981035,-17.575068 67.483483,-29.054684 120.218603,-29.054684l2078.335682,0z" fill-opacity="0.2" fill="#0092FF"/>
    </g>
   </g>
   <path stroke="null" id="svg_12" opacity="0.1" d="m-15.010187,-2.405671l1602.043897,-6.156311c0,0 351.685178,87.727434 42.591265,135.438845c-309.093913,47.711411 -329.344893,93.883745 -524.926731,109.082138c-195.581838,15.198393 -361.488752,-46.172334 -585.679673,9.234467c-224.19092,55.4068 -258.654796,49.301656 -534.028758,40.067189c-275.373963,-9.234467 0,-287.666328 0,-287.666328z" fill="#0055FF"/>
  </g>
 </g>
</svg>